<svg xmlns="http://www.w3.org/2000/svg" version="1.1" xmlns:xlink="http://www.w3.org/1999/xlink" xmlns:svgjs="http://svgjs.dev/svgjs" width="720" height="560" preserveAspectRatio="none" viewBox="0 0 720 560"><g mask="url(&quot;#SvgjsMask1065&quot;)" fill="none"><rect width="720" height="560" x="0" y="0" fill="rgba(231, 220, 201, 1)"></rect><path d="M0,280.501C57.652,278.021,123.082,297.826,168.643,262.414C214.069,227.107,204.039,156.427,227.324,103.816C250.228,52.065,300.092,12.72,304.138,-43.728C308.549,-105.266,289.071,-168.895,250.31,-216.895C210.965,-265.618,152.114,-296.967,90.516,-308.268C32.035,-318.997,-24.831,-295.574,-81.564,-277.782C-137.26,-260.315,-205.771,-254.714,-237.164,-205.504C-268.531,-156.335,-225.23,-91.195,-237.034,-34.08C-250.063,28.966,-320.72,77.753,-308.776,141.013C-296.862,204.114,-236.756,250.901,-178.234,277.338C-122.963,302.306,-60.593,283.108,0,280.501" fill="#e0d2ba"></path><path d="M720 845.348C772.488 845.433 809.906 796.302 850.4 762.907 886.351 733.258 915.688 699.6800000000001 942.686 661.697 975.754 615.175 1030.061 572.944 1025.886 516.02 1021.7239999999999 459.267 965.537 421.723 922.367 384.648 884.208 351.876 841.092 325.65 791.915 315.08000000000004 745.028 305.002 699.144 321.77 651.4110000000001 326.408 590.664 332.31100000000004 512.554 299.494 473.101 346.06100000000004 433.508 392.793 487.95799999999997 464.844 482.443 525.844 477.36 582.062 418.958 635.426 442.292 686.825 465.616 738.203 540.869 734.513 589.871 762.485 635.454 788.505 667.513 845.2629999999999 720 845.348" fill="#eee6d8"></path></g><defs><mask id="SvgjsMask1065"><rect width="720" height="560" fill="#ffffff"></rect></mask></defs></svg>