<svg xmlns="http://www.w3.org/2000/svg" version="1.1" xmlns:xlink="http://www.w3.org/1999/xlink" xmlns:svgjs="http://svgjs.dev/svgjs" width="1440" height="560" preserveAspectRatio="none" viewBox="0 0 1440 560"><g mask="url(&quot;#SvgjsMask1008&quot;)" fill="none"><rect width="1440" height="560" x="0" y="0" fill="rgba(208, 221, 234, 1)"></rect><path d="M 0,24 C 57.6,58 172.8,192.8 288,194 C 403.2,195.2 460.8,38.2 576,30 C 691.2,21.8 748.8,154.8 864,153 C 979.2,151.2 1036.8,23 1152,21 C 1267.2,19 1382.4,118.6 1440,143L1440 560L0 560z" fill="rgba(232, 237, 243, 1)"></path><path d="M 0,347 C 48,378 144,497.4 240,502 C 336,506.6 384,364.8 480,370 C 576,375.2 624,543.2 720,528 C 816,512.8 864,310.8 960,294 C 1056,277.2 1104,431.6 1200,444 C 1296,456.4 1392,373.6 1440,356L1440 560L0 560z" fill="rgba(203, 213, 227, 1)"></path></g><defs><mask id="SvgjsMask1008"><rect width="1440" height="560" fill="#ffffff"></rect></mask></defs></svg>