<svg xmlns="http://www.w3.org/2000/svg" version="1.1" xmlns:xlink="http://www.w3.org/1999/xlink" xmlns:svgjs="http://svgjs.dev/svgjs" width="1700" height="560" preserveAspectRatio="none" viewBox="0 0 1700 560"><g mask="url(&quot;#SvgjsMask1047&quot;)" fill="none"><rect width="1700" height="560" x="0" y="0" fill="rgba(235, 219, 187, 1)"></rect><path d="M0,758.733C141.552,735.892,176.69,539.736,292.823,455.642C399.057,378.716,574.335,405.468,642.558,293.446C710.462,181.947,641.702,39.614,625.046,-89.868C608.112,-221.513,627.322,-368.069,544.157,-471.514C460.307,-575.81,311.59,-587.639,186.541,-635.299C49.576,-687.501,-79.883,-788.554,-224.465,-764.459C-373.142,-739.682,-514.339,-639.983,-584.822,-506.751C-652.076,-379.624,-589.085,-227.774,-584.432,-84.029C-580.682,31.825,-598.138,146.298,-560.138,255.807C-519.461,373.033,-452.91,478.179,-360.582,561.077C-256.484,654.543,-138.114,781.019,0,758.733" fill="#e6d2ab"></path><path d="M1700 885.821C1760.88 877.117 1819.069 859.0029999999999 1870.117 824.707 1920.412 790.918 1951.549 739.703 1988.719 691.8530000000001 2037.733 628.756 2119.8940000000002 579.022 2122.985 499.18399999999997 2126.078 419.304 2056.44 356.918 2004.025 296.561 1951.66 236.262 1895.391 177.53699999999998 1820.225 150.551 1742.534 122.65899999999999 1650.336 104.27999999999997 1577.706 143.50599999999997 1506.386 182.024 1511.089 289.183 1455.066 347.76300000000003 1394.335 411.26599999999996 1275.9560000000001 413.01800000000003 1242.324 494.196 1208.7730000000001 575.177 1241.219 674.3 1289.4569999999999 747.489 1335.143 816.806 1416.789 851.761 1495.461 878.27 1561.453 900.506 1631.064 895.6759999999999 1700 885.821" fill="#f0e4cb"></path></g><defs><mask id="SvgjsMask1047"><rect width="1700" height="560" fill="#ffffff"></rect></mask></defs></svg>