<svg xmlns="http://www.w3.org/2000/svg" version="1.1" xmlns:xlink="http://www.w3.org/1999/xlink" xmlns:svgjs="http://svgjs.dev/svgjs" width="720" height="560" preserveAspectRatio="none" viewBox="0 0 720 560"><g mask="url(&quot;#SvgjsMask1181&quot;)" fill="none"><rect width="720" height="560" x="0" y="0" fill="rgba(239, 209, 170, 1)"></rect><path d="M0,219.434C40.363,220.343,64.657,174.61,101.241,157.534C145.921,136.68,208.854,148.562,237.627,108.521C266.001,69.035,247.685,13.483,239.152,-34.385C230.865,-80.875,218.768,-127.115,189.077,-163.836C158.783,-201.303,116.529,-226.102,71.117,-242.202C23.787,-258.982,-31.271,-281.165,-75.667,-257.697C-120.382,-234.06,-121.723,-171.085,-146.663,-127.084C-165.742,-93.424,-193.486,-66.408,-205.024,-29.478C-218.148,12.527,-239.59,61.282,-217.385,99.276C-194.963,137.641,-137.244,131.543,-98.353,153.04C-63.019,172.571,-40.363,218.525,0,219.434" fill="#ebc695"></path><path d="M720 913.585C786.185 915.1320000000001 855.004 888.932 900.461 840.802 942.999 795.763 929.96 723.932 953.315 666.551 975.282 612.58 1032.434 573.252 1033.076 514.986 1033.741 454.637 1004.553 391.696 956.748 354.856 910.782 319.43399999999997 843.974 343.738 788.548 326.547 731.827 308.95500000000004 689.227 249.05900000000003 630.009 253.51799999999997 568.8199999999999 258.125 512.85 299.732 477.601 349.96000000000004 443.654 398.334 451.355 461.67 442.888 520.157 434.412 578.711 409.517 637.164 427.883 693.405 447.078 752.186 495.501 795.27 544.881 832.49 597.313 872.01 654.36 912.0509999999999 720 913.585" fill="#f3dcbf"></path></g><defs><mask id="SvgjsMask1181"><rect width="720" height="560" fill="#ffffff"></rect></mask></defs></svg>